<?xml version="1.0" standalone="no"?>
<!DOCTYPE svg PUBLIC "-//W3C//DTD SVG 20010904//EN"
 "http://www.w3.org/TR/2001/REC-SVG-20010904/DTD/svg10.dtd">
<svg version="1.0" xmlns="http://www.w3.org/2000/svg"
 width="554.000000pt" height="525.000000pt" viewBox="0 0 554.000000 525.000000"
 preserveAspectRatio="xMidYMid meet">

<g transform="translate(0.000000,525.000000) scale(0.100000,-0.100000)"
fill="#000000" stroke="none">
<path d="M2690 4469 c-185 -25 -276 -53 -455 -140 -233 -114 -361 -203 -740
-519 -110 -92 -235 -192 -278 -224 -43 -32 -76 -60 -73 -63 9 -9 79 18 199 78
114 56 330 197 523 340 237 176 449 287 624 329 19 5 67 16 105 26 87 21 365
25 438 6 26 -6 68 -17 95 -23 128 -30 304 -108 424 -190 32 -21 62 -39 67 -39
5 0 11 -6 14 -12 2 -7 7 -10 11 -7 13 12 -189 193 -285 256 -53 34 -100 63
-104 63 -4 0 -19 8 -33 18 -48 34 -210 82 -325 97 -123 16 -114 16 -207 4z"/>
<path d="M2690 4196 c-30 -7 -66 -18 -80 -25 -27 -12 -12 -12 128 5 108 14
287 -38 395 -113 129 -88 211 -198 268 -353 21 -58 24 -81 23 -220 0 -144 -2
-160 -28 -225 -15 -38 -36 -85 -47 -104 -22 -37 -17 -56 6 -25 31 40 95 181
109 244 34 143 13 338 -50 462 -87 173 -208 277 -399 343 -66 23 -251 29 -325
11z"/>
<path d="M2548 4143 c7 -3 16 -2 19 1 4 3 -2 6 -13 5 -11 0 -14 -3 -6 -6z"/>
<path d="M2730 4090 c-101 -14 -198 -62 -284 -141 -120 -111 -176 -244 -176
-419 0 -165 44 -279 152 -392 63 -67 140 -117 224 -147 86 -30 243 -29 334 2
171 58 292 182 356 362 14 37 18 81 19 170 0 128 -9 173 -54 263 l-26 54 -6
-74 c-3 -45 -13 -88 -26 -113 -82 -157 -273 -199 -402 -89 -62 54 -91 118 -91
203 0 146 84 249 225 276 l40 8 -40 17 c-48 21 -169 31 -245 20z"/>
<path d="M4550 3590 c-41 -17 -79 -30 -84 -30 -4 0 -78 -35 -165 -78 -175 -88
-355 -202 -547 -346 -228 -173 -416 -267 -639 -321 -96 -23 -130 -26 -279 -26
-155 0 -233 9 -294 32 -13 5 -31 9 -40 9 -10 0 -53 14 -97 31 -138 53 -250
111 -367 190 -33 22 -62 38 -65 35 -9 -9 188 -205 262 -261 170 -128 324 -190
535 -214 171 -20 387 24 584 118 81 40 177 91 186 101 3 3 36 26 75 50 75 48
202 143 385 286 217 169 357 268 521 368 78 48 129 86 113 86 -5 -1 -43 -14
-84 -30z"/>
<path d="M3310 3099 c0 -5 5 -7 10 -4 6 3 10 8 10 11 0 2 -4 4 -10 4 -5 0 -10
-5 -10 -11z"/>
<path d="M2015 2340 c-3 -5 -12 -7 -20 -4 -18 7 -32 -23 -17 -38 8 -8 15 -8
26 1 8 7 19 10 25 7 11 -7 24 22 15 35 -7 12 -21 12 -29 -1z"/>
<path d="M3545 2340 c-3 -5 -12 -7 -20 -4 -18 7 -32 -23 -17 -38 8 -8 15 -8
26 1 8 7 19 10 25 7 11 -7 24 22 15 35 -7 12 -21 12 -29 -1z"/>
<path d="M3231 2308 c-5 -13 -5 -30 -1 -38 4 -8 11 -34 15 -57 5 -35 4 -43
-14 -52 -27 -15 -31 -14 -31 7 0 9 -5 24 -10 32 -9 13 -11 13 -20 0 -5 -8 -7
-25 -3 -37 5 -22 2 -23 -55 -23 -34 0 -73 5 -87 10 -23 9 -26 14 -20 43 6 30
5 31 -10 13 -20 -26 -19 -80 1 -100 13 -13 46 -16 200 -16 l185 0 -3 63 -3 62
-35 -1 c-19 0 -44 -4 -54 -9 -18 -8 -19 -5 -13 46 6 48 4 56 -13 67 -18 11
-22 10 -29 -10z m119 -147 c0 -11 -59 -25 -68 -16 -3 3 0 10 8 15 19 12 60 13
60 1z"/>
<path d="M1736 2303 c-4 -11 0 -50 8 -86 7 -36 11 -69 8 -72 -3 -3 -25 -5 -50
-5 -43 0 -44 1 -38 26 4 15 2 32 -5 40 -16 19 -75 18 -83 -2 -9 -24 -7 -46 4
-39 6 3 10 2 10 -4 0 -5 -5 -13 -10 -16 -10 -6 -14 1 -24 48 -9 40 -29 22 -23
-20 6 -33 5 -34 -26 -31 -26 2 -33 8 -35 30 -2 14 -10 32 -19 39 -13 11 -18
10 -34 -10 -24 -30 -25 -86 -1 -100 16 -10 16 -12 -3 -27 -14 -11 -33 -14 -65
-10 l-45 5 30 -25 c43 -35 93 -30 120 13 18 28 26 32 85 37 79 6 77 6 167 0
l72 -6 -3 102 c-2 74 -7 106 -19 117 -13 14 -16 13 -21 -4z"/>
<path d="M3845 2301 c-3 -12 -2 -36 4 -54 5 -17 11 -48 13 -67 3 -31 0 -35
-23 -38 -19 -2 -40 8 -73 37 -26 23 -57 41 -70 41 -36 0 -65 -40 -28 -40 18
-1 52 -22 52 -34 0 -3 -27 -6 -60 -6 -69 0 -74 6 -85 92 -4 32 -11 55 -16 52
-5 -3 -9 -14 -9 -24 0 -11 -9 -24 -20 -30 -19 -10 -50 -59 -50 -78 0 -13 46
-21 61 -11 9 5 19 -2 31 -22 l18 -29 168 0 c114 0 172 4 180 12 8 8 15 8 26
-1 10 -9 51 -11 143 -7 70 2 135 6 143 7 8 2 27 0 43 -4 26 -7 27 -6 27 27 0
46 -16 86 -34 86 -8 0 -25 -13 -38 -30 -13 -16 -34 -31 -46 -32 -19 -2 -26 4
-35 32 -17 50 -53 52 -116 6 -55 -41 -81 -46 -81 -16 0 26 -4 25 -35 -6 -36
-36 -48 -21 -49 60 -1 46 -6 70 -17 82 -16 15 -17 15 -24 -5z m-295 -101 c0
-5 -5 -10 -11 -10 -5 0 -7 5 -4 10 3 6 8 10 11 10 2 0 4 -4 4 -10z m590 -40
c0 -11 -68 -25 -78 -16 -3 4 0 11 8 16 20 13 70 13 70 0z"/>
<path d="M1811 2281 c-8 -15 -8 -40 0 -91 6 -39 8 -77 5 -85 -3 -8 -1 -17 4
-20 18 -11 27 60 18 135 -5 41 -11 76 -13 78 -2 2 -8 -6 -14 -17z"/>
<path d="M2311 2281 c-8 -15 -8 -40 0 -91 6 -39 8 -77 5 -85 -3 -8 -1 -17 4
-20 18 -11 27 60 18 135 -5 41 -11 76 -13 78 -2 2 -8 -6 -14 -17z"/>
<path d="M2027 2284 c-4 -4 -7 -15 -7 -25 0 -10 -9 -23 -20 -29 -19 -10 -50
-59 -50 -78 0 -13 46 -21 61 -11 9 5 19 -2 31 -22 l18 -29 115 0 115 0 -1 28
c0 32 -77 102 -113 102 -37 0 -65 -40 -28 -40 18 -1 52 -22 52 -34 0 -12 -129
-6 -137 7 -4 6 -12 40 -18 75 -6 35 -14 60 -18 56z m-7 -84 c0 -5 -5 -10 -11
-10 -5 0 -7 5 -4 10 3 6 8 10 11 10 2 0 4 -4 4 -10z"/>
<path d="M1195 2239 c-5 -14 -2 -25 6 -30 21 -13 27 -11 39 11 8 15 6 21 -9
30 -27 14 -29 13 -36 -11z"/>
<path d="M2551 2203 c-8 -14 -4 -19 22 -28 49 -16 46 -35 -5 -35 -42 0 -45 2
-58 38 l-13 37 -10 -28 c-6 -19 -5 -32 4 -43 29 -35 -55 -109 -98 -86 -32 17
-36 1 -6 -20 43 -28 76 -23 112 17 l30 35 91 0 c85 0 90 1 90 21 0 30 -88 108
-122 109 -16 0 -31 -7 -37 -17z"/>
<path d="M2811 2206 c-7 -8 -14 -30 -18 -49 -4 -27 -1 -39 16 -54 l21 -20 -24
-13 c-15 -7 -39 -10 -60 -7 -44 7 -46 -3 -7 -26 40 -24 74 -21 101 8 31 33 39
114 16 150 -19 29 -29 31 -45 11z m24 -46 c3 -5 1 -10 -4 -10 -6 0 -11 5 -11
10 0 6 2 10 4 10 3 0 8 -4 11 -10z"/>
<path d="M1275 2182 c-3 -17 -2 -40 4 -51 6 -11 8 -26 5 -35 -12 -31 -95 -39
-123 -12 -13 14 -13 21 -2 52 15 42 9 55 -12 22 -48 -75 -17 -138 66 -138 69
0 92 24 92 97 -1 32 -6 67 -12 77 -10 18 -11 17 -18 -12z"/>
<path d="M1520 2069 c0 -6 -7 -9 -15 -5 -9 3 -19 -3 -25 -14 -8 -15 -6 -21 10
-30 13 -7 20 -7 20 0 0 5 9 10 19 10 20 0 35 25 25 41 -8 13 -34 11 -34 -2z"/>
<path d="M2592 2068 c-18 -18 -14 -36 9 -43 20 -7 38 7 39 27 0 15 -37 27 -48
16z"/>
<path d="M3075 2059 c-5 -14 -2 -25 6 -30 19 -12 25 -11 40 7 11 14 10 18 -6
30 -26 19 -32 18 -40 -7z"/>
<path d="M1062 1908 c-18 -18 -14 -38 8 -38 15 0 20 7 20 25 0 27 -9 32 -28
13z"/>
<path d="M1375 1910 c-3 -5 -15 -10 -26 -10 -11 0 -22 -7 -26 -16 -7 -19 17
-38 31 -24 6 6 18 10 27 10 9 0 19 6 22 14 7 18 -18 42 -28 26z"/>
<path d="M3605 1861 c-3 -10 1 -45 10 -77 20 -77 20 -74 -21 -74 -28 0 -46 9
-75 35 -40 36 -76 44 -97 23 -17 -17 -15 -28 6 -28 10 0 27 -7 38 -15 17 -13
13 -14 -47 -15 -76 0 -79 4 -79 92 0 26 -4 49 -9 53 -15 9 -31 -28 -20 -46 5
-7 9 -39 9 -69 0 -30 4 -60 8 -67 11 -17 325 -20 330 -3 2 6 -1 38 -7 70 -8
37 -8 66 -2 82 7 20 5 28 -10 41 -24 21 -26 21 -34 -2z"/>
<path d="M4067 1873 c-13 -12 -7 -41 10 -47 23 -9 47 22 32 41 -12 14 -32 17
-42 6z"/>
<path d="M4264 1865 c-4 -8 -1 -22 6 -30 7 -9 8 -15 2 -15 -5 0 -13 -8 -16
-17 -8 -19 14 -37 28 -23 6 6 18 10 27 10 21 0 34 31 17 42 -7 4 -17 8 -22 8
-5 0 -6 3 -3 7 8 7 -11 33 -25 33 -5 0 -11 -7 -14 -15z"/>
<path d="M4855 1860 c-4 -11 -2 -35 3 -53 6 -17 13 -47 16 -64 5 -31 4 -33
-22 -33 -21 0 -30 7 -39 30 -6 17 -18 30 -27 30 -8 0 -25 -13 -38 -30 -29 -40
-78 -43 -78 -5 0 14 -4 25 -9 25 -12 0 -22 -29 -15 -42 4 -6 1 -9 -7 -6 -8 3
-13 12 -11 22 4 23 -15 20 -23 -4 -5 -15 -15 -20 -41 -20 -27 0 -34 4 -34 20
0 11 -3 20 -8 20 -4 0 -13 -9 -20 -20 -18 -29 -52 -26 -52 4 0 13 -6 29 -14
35 -11 9 -15 7 -19 -11 -4 -12 -1 -28 5 -35 8 -10 3 -13 -26 -13 -32 0 -36 3
-36 26 0 31 -23 28 -28 -4 -4 -29 -22 -28 -23 1 l0 22 -16 -22 c-21 -30 -73
-32 -73 -3 0 26 -12 26 -28 -1 -16 -26 -56 -22 -60 6 -2 11 -8 32 -14 48 -21
54 -75 18 -66 -44 4 -26 2 -29 -24 -29 -72 0 -131 -69 -76 -89 21 -7 19 -9
-15 -20 -74 -25 -104 3 -76 70 19 48 1 46 -21 -2 -27 -61 -26 -95 5 -115 28
-18 65 -15 121 12 28 13 35 24 40 55 l7 39 91 1 c50 0 158 0 239 -1 102 -1
153 2 163 11 10 8 14 8 14 0 0 -7 54 -10 178 -10 97 1 184 -1 192 -3 11 -2 15
5 13 32 -1 19 -3 64 -4 100 -3 76 -29 118 -44 70z m-75 -140 c0 -5 -2 -10 -4
-10 -3 0 -8 5 -11 10 -3 6 -1 10 4 10 6 0 11 -4 11 -10z"/>
<path d="M837 1854 c-9 -10 4 -167 16 -181 6 -9 39 -13 98 -13 74 0 89 3 89
15 0 23 -24 67 -49 89 -27 25 -26 32 4 40 18 5 25 13 25 31 0 23 -2 24 -27 14
-42 -16 -63 -39 -63 -71 0 -21 6 -31 24 -38 48 -18 39 -30 -22 -30 l-60 0 -4
65 c-4 61 -16 93 -31 79z"/>
<path d="M1061 1842 c-7 -13 -7 -40 0 -86 6 -38 9 -76 6 -87 -3 -10 -1 -21 3
-24 19 -12 30 68 19 139 -5 38 -11 72 -13 74 -3 2 -9 -5 -15 -16z"/>
<path d="M1676 1845 c-3 -9 -1 -37 4 -63 5 -26 11 -63 12 -82 l3 -35 103 -1
c100 -1 102 0 102 22 0 34 -18 74 -36 81 -12 4 -25 -4 -43 -26 -23 -28 -32
-32 -66 -29 l-40 3 -3 50 c-3 64 -10 95 -21 95 -5 0 -12 -7 -15 -15z"/>
<path d="M3686 1845 c-8 -22 5 -195 15 -195 16 0 22 51 15 123 -7 73 -18 101
-30 72z"/>
<path d="M4388 1843 c-16 -8 -28 -20 -28 -27 0 -17 27 -29 35 -16 4 6 14 10
25 10 22 0 33 23 17 39 -13 13 -14 13 -49 -6z"/>
<path d="M4936 1845 c-8 -22 5 -195 15 -195 16 0 22 51 15 123 -7 73 -18 101
-30 72z"/>
<path d="M1375 1827 c-4 -15 -16 -32 -26 -38 -23 -12 -52 -66 -43 -80 4 -7 22
-9 43 -6 31 4 39 1 47 -17 7 -16 19 -22 52 -24 24 -2 50 2 58 9 10 8 14 8 14
0 0 -7 28 -11 80 -11 l80 0 0 44 c0 25 -5 48 -11 52 -13 8 -31 -16 -24 -33 2
-7 0 -13 -5 -13 -6 0 -10 9 -10 20 0 11 -4 20 -9 20 -5 0 -13 -9 -16 -20 -5
-15 -15 -20 -40 -20 -29 0 -34 4 -37 28 l-4 27 -14 -28 c-12 -25 -18 -28 -54
-25 l-41 3 -11 55 c-16 81 -20 90 -29 57z m5 -67 c0 -5 -7 -10 -16 -10 -8 0
-12 5 -9 10 3 6 10 10 16 10 5 0 9 -4 9 -10z"/>
<path d="M768 1790 c-3 -17 -1 -33 4 -36 4 -3 13 -14 19 -26 10 -19 9 -20 -29
-16 -31 2 -42 0 -45 -12 -8 -31 4 -40 54 -40 l49 0 0 45 c0 48 -22 115 -38
115 -6 0 -12 -14 -14 -30z"/>
<path d="M3048 1779 c-10 -5 -18 -21 -18 -35 0 -14 4 -22 10 -19 6 3 10 1 10
-4 0 -6 -10 -11 -22 -11 -44 0 -69 -13 -84 -41 -14 -28 -14 -30 7 -38 21 -7
20 -8 -9 -14 -33 -7 -75 4 -86 22 -4 6 0 24 9 40 20 40 19 48 -5 26 -10 -9
-24 -32 -30 -51 -14 -43 1 -73 41 -81 22 -4 27 -9 19 -18 -13 -16 -3 -23 30
-20 17 1 25 8 25 20 0 12 9 21 25 25 17 4 28 16 35 37 6 18 14 35 18 39 3 4
67 7 142 7 l135 0 0 34 c0 41 -15 73 -35 73 -8 0 -24 -13 -37 -30 -19 -26 -28
-30 -70 -30 -47 0 -48 1 -37 22 10 18 8 24 -11 40 -25 20 -37 22 -62 7z m212
-59 c0 -5 -2 -10 -4 -10 -3 0 -8 5 -11 10 -3 6 -1 10 4 10 6 0 11 -4 11 -10z"/>
<path d="M667 1758 c-4 -12 -1 -28 5 -35 8 -10 2 -13 -29 -13 -34 0 -40 4 -52
33 l-13 32 -8 -25 c-4 -14 -3 -31 3 -37 28 -37 -50 -116 -92 -94 -24 14 -31
14 -31 1 0 -13 54 -40 79 -40 11 0 35 18 54 40 29 35 39 40 75 40 l42 0 0 44
c0 70 -21 103 -33 54z"/>
<path d="M2446 1758 c-22 -31 -21 -84 2 -97 16 -10 16 -12 -3 -27 -18 -13 -50
-15 -80 -3 -5 2 -12 0 -14 -5 -2 -6 12 -19 31 -29 43 -26 81 -17 105 24 18 29
73 66 73 48 0 -5 36 -9 81 -9 l80 0 -3 45 c-3 46 -20 63 -26 25 -4 -26 -22
-26 -22 0 0 11 -4 20 -9 20 -5 0 -11 -9 -14 -20 -4 -15 -14 -20 -40 -20 -31 0
-36 3 -39 28 l-4 27 -12 -27 c-15 -36 -52 -39 -52 -5 0 22 -16 47 -31 47 -5 0
-15 -10 -23 -22z m29 -38 c3 -5 1 -10 -4 -10 -6 0 -11 5 -11 10 0 6 2 10 4 10
3 0 8 -4 11 -10z"/>
<path d="M2186 1754 c-4 -10 -4 -37 0 -60 5 -36 3 -44 -14 -53 -30 -16 -87
-13 -102 4 -12 14 -10 42 5 78 4 10 3 17 -4 17 -15 0 -41 -61 -41 -93 0 -37
22 -58 68 -64 55 -7 98 11 111 48 10 28 13 29 70 29 l61 0 0 51 c0 36 -4 49
-12 47 -7 -3 -14 -14 -16 -26 -4 -28 -22 -29 -22 -2 0 11 -4 20 -9 20 -5 0
-11 -9 -14 -20 -7 -26 -57 -28 -57 -2 0 9 -4 23 -9 30 -6 11 -10 10 -15 -4z"/>
<path d="M1923 1713 c-11 -29 6 -43 52 -43 41 0 45 2 45 24 0 21 -5 24 -46 28
-31 2 -48 -1 -51 -9z"/>
<path d="M1232 1633 c2 -20 9 -29 26 -31 19 -3 22 1 22 27 0 27 -4 31 -26 31
-22 0 -25 -4 -22 -27z"/>
<path d="M656 1633 c-4 -4 -15 -8 -24 -8 -10 0 -17 -8 -17 -20 0 -16 6 -20 29
-18 33 3 62 26 52 42 -8 13 -29 14 -40 4z"/>
<path d="M3457 1633 c-13 -12 -7 -41 10 -47 11 -5 22 0 31 11 11 15 10 20 -5
30 -19 15 -27 16 -36 6z"/>
<path d="M616 1258 c-30 -43 -12 -84 45 -103 45 -16 60 -42 35 -61 -27 -19
-33 -18 -60 11 -30 32 -36 31 -36 -3 0 -28 1 -29 51 -28 44 1 55 5 72 28 17
22 18 33 11 60 -8 27 -18 35 -54 48 -50 17 -64 44 -29 55 18 6 28 1 45 -19 29
-33 36 -33 32 1 -3 24 -8 27 -50 30 -39 4 -48 1 -62 -19z"/>
<path d="M768 1273 c15 -6 17 -183 2 -183 -5 0 -10 -4 -10 -10 0 -6 37 -10 90
-10 l90 0 0 38 0 37 -23 -28 c-17 -22 -29 -28 -52 -25 -25 2 -31 8 -33 32 -5
38 15 58 32 34 20 -27 26 -22 26 22 0 40 -13 53 -24 25 -3 -8 -13 -15 -21 -15
-13 0 -15 9 -13 38 4 49 36 56 73 16 l25 -27 0 32 0 31 -87 -1 c-49 0 -82 -3
-75 -6z"/>
<path d="M973 1273 c14 -4 17 -17 17 -90 0 -70 -3 -88 -17 -99 -16 -12 -10
-13 42 -13 52 0 58 1 43 13 -18 13 -26 96 -10 96 15 0 32 -24 32 -45 0 -31 28
-65 55 -65 28 0 41 15 20 24 -8 3 -15 17 -15 31 0 14 -9 33 -20 42 -19 16 -19
17 3 28 31 15 33 49 5 69 -16 12 -43 16 -98 15 -41 -1 -67 -3 -57 -6z m105
-12 c8 -5 12 -21 10 -37 -2 -21 -9 -30 -25 -32 -21 -3 -23 1 -23 37 0 41 10
50 38 32z"/>
<path d="M1200 1263 c6 -10 26 -56 44 -103 19 -47 38 -85 43 -85 4 0 22 39 38
86 17 47 36 94 44 103 12 14 10 16 -20 16 -23 0 -30 -3 -20 -9 11 -7 10 -18
-5 -62 l-17 -54 -24 54 c-19 43 -21 56 -11 62 8 5 -6 9 -35 9 -42 0 -46 -2
-37 -17z"/>
<path d="M1408 1273 c15 -6 17 -183 2 -183 -5 0 -10 -4 -10 -10 0 -5 23 -10
50 -10 28 0 50 5 50 10 0 6 -4 10 -10 10 -15 0 -13 177 3 183 6 3 -13 5 -43 5
-30 0 -49 -2 -42 -5z"/>
<path d="M1559 1267 c-47 -36 -53 -119 -13 -166 23 -28 31 -31 75 -29 49 2 49
3 49 36 l0 34 -30 -32 c-25 -27 -33 -30 -45 -20 -21 17 -21 152 -1 169 18 15
56 -2 56 -24 0 -8 5 -15 10 -15 6 0 10 13 10 28 0 27 -2 29 -47 30 -27 1 -55
-4 -64 -11z"/>
<path d="M1703 1269 c23 -14 26 -166 2 -175 -37 -15 -8 -24 75 -24 l90 0 0 38
-1 37 -20 -27 c-14 -20 -30 -28 -50 -28 -27 0 -29 2 -29 40 0 45 10 51 33 18
15 -22 16 -21 16 27 0 44 -1 48 -13 33 -22 -30 -36 -21 -36 22 0 34 3 40 20
40 12 0 32 -12 45 -26 l25 -27 0 32 0 31 -87 0 c-65 -1 -83 -3 -70 -11z"/>
<path d="M1988 1273 c15 -6 17 -183 2 -183 -5 0 -10 -4 -10 -10 0 -15 117 -12
149 4 58 30 69 119 22 167 -27 27 -35 29 -103 28 -40 0 -67 -3 -60 -6z m116
-19 c11 -10 16 -34 16 -70 0 -64 -13 -94 -40 -94 -18 0 -20 7 -20 90 0 95 9
110 44 74z"/>
<path d="M2207 1267 c-7 -18 11 -37 29 -30 20 8 17 -3 -8 -27 -17 -15 -18 -20
-6 -20 42 0 53 82 12 88 -12 2 -24 -3 -27 -11z"/>
<path d="M2333 1265 c-44 -31 -50 -122 -12 -164 62 -67 159 -16 159 82 0 75
-87 124 -147 82z m75 -7 c7 -7 12 -41 12 -85 0 -59 -3 -74 -18 -82 -32 -17
-46 3 -50 72 -6 88 20 131 56 95z"/>
<path d="M2508 1273 c15 -6 17 -183 2 -183 -5 0 -10 -4 -10 -10 0 -5 23 -10
50 -10 28 0 50 5 50 10 0 6 -7 10 -16 10 -25 0 -15 74 11 78 39 6 74 24 80 42
8 26 -5 50 -32 61 -25 9 -159 12 -135 2z m100 -15 c16 -16 15 -53 -3 -68 -21
-17 -35 -4 -35 34 0 45 14 58 38 34z"/>
<path d="M2703 1269 c14 -8 17 -24 17 -91 0 -65 -3 -83 -17 -94 -16 -12 -11
-13 35 -14 28 0 52 5 52 10 0 6 -4 10 -10 10 -5 0 -10 18 -10 40 0 38 2 40 30
40 28 0 30 -2 30 -40 0 -22 -4 -40 -10 -40 -5 0 -10 -4 -10 -10 0 -5 23 -10
52 -10 40 0 49 3 40 12 -17 17 -16 185 1 191 6 3 -13 5 -43 5 -30 0 -49 -2
-42 -5 7 -2 12 -22 12 -44 0 -37 -2 -39 -30 -39 -28 0 -30 2 -30 39 0 22 5 42
13 44 6 3 -13 6 -43 6 -42 0 -51 -2 -37 -10z"/>
<path d="M2930 1245 c0 -19 5 -35 10 -35 6 0 10 6 10 13 0 8 9 22 20 32 20 18
20 17 20 -70 0 -72 -3 -90 -17 -101 -16 -12 -10 -13 40 -14 31 0 57 4 57 10 0
6 -4 10 -10 10 -6 0 -10 37 -10 92 0 90 0 91 20 73 11 -10 20 -25 20 -34 0
-10 3 -12 11 -4 5 5 7 22 3 37 -6 26 -8 26 -90 26 l-84 0 0 -35z"/>
<path d="M3187 1188 c-21 -50 -46 -97 -55 -104 -15 -12 -12 -13 22 -14 33 0
37 2 26 15 -19 23 -4 45 30 45 34 0 49 -22 30 -45 -11 -13 -5 -15 39 -15 45 0
69 12 41 22 -6 2 -26 43 -44 93 -19 49 -38 91 -43 92 -5 2 -26 -38 -46 -89z
m37 -39 c-7 -13 -34 -11 -34 2 0 6 5 20 11 32 l12 21 9 -23 c4 -12 6 -27 2
-32z"/>
<path d="M3353 1273 c14 -4 17 -17 17 -90 0 -70 -3 -88 -17 -99 -15 -11 -5
-13 75 -14 l92 0 0 43 0 42 -20 -32 c-14 -23 -27 -33 -45 -33 -25 0 -25 1 -25
89 0 77 2 90 18 94 9 3 -12 5 -48 5 -36 0 -57 -2 -47 -5z"/>
<path d="M3553 1269 c23 -14 26 -166 2 -175 -28 -11 -15 -24 23 -24 33 1 35 2
19 14 -15 12 -17 26 -15 82 l3 69 24 -78 c13 -43 28 -80 32 -82 4 -3 20 32 36
77 l28 83 3 -69 c2 -56 0 -70 -15 -82 -16 -12 -12 -13 35 -14 28 0 52 5 52 10
0 6 -4 10 -10 10 -15 0 -13 177 3 183 6 3 -7 6 -30 6 -41 1 -41 1 -58 -50 -19
-56 -26 -55 -44 9 -12 42 -12 42 -59 42 -37 -1 -43 -3 -29 -11z"/>
<path d="M3843 1265 c-44 -31 -50 -122 -12 -164 62 -67 159 -16 159 82 0 75
-87 124 -147 82z m75 -7 c7 -7 12 -41 12 -85 0 -59 -3 -74 -18 -82 -32 -17
-46 3 -50 72 -6 88 20 131 56 95z"/>
<path d="M4018 1273 c15 -6 17 -183 2 -183 -5 0 -10 -4 -10 -10 0 -6 35 -10
84 -10 l84 0 5 33 c6 43 -1 47 -25 14 -12 -16 -29 -27 -44 -27 -24 0 -24 2
-24 89 0 77 2 90 18 94 9 3 -10 5 -43 5 -33 0 -54 -2 -47 -5z"/>
<path d="M4236 1254 c-21 -22 -26 -36 -26 -76 0 -41 5 -54 29 -79 71 -70 167
-1 147 106 -14 71 -99 99 -150 49z m84 -3 c16 -32 13 -137 -6 -156 -30 -29
-44 -1 -44 85 0 42 3 80 7 83 12 13 32 7 43 -12z"/>
<path d="M4448 1255 c-33 -32 -42 -77 -24 -119 36 -86 151 -89 170 -3 6 26 5
27 -39 27 -25 0 -45 -4 -45 -10 0 -5 7 -10 15 -10 19 0 19 -24 0 -44 -22 -22
-43 -9 -51 31 -6 34 1 116 12 134 10 17 45 9 69 -17 l25 -27 0 29 c0 28 -2 29
-53 32 -46 2 -57 -1 -79 -23z"/>
<path d="M4628 1273 c16 -6 17 -174 0 -191 -9 -9 1 -12 48 -12 51 1 57 2 42
14 -15 11 -18 29 -18 99 0 73 3 86 18 90 9 3 -10 5 -43 5 -33 0 -54 -2 -47 -5z"/>
<path d="M4753 1269 c14 -8 17 -24 17 -91 0 -65 -3 -83 -17 -94 -15 -11 -5
-13 73 -14 l92 0 4 35 c5 41 -4 44 -26 10 -11 -17 -26 -25 -46 -25 -28 0 -30
2 -30 40 0 45 11 51 34 18 15 -22 16 -21 16 27 -1 44 -2 48 -14 33 -22 -30
-36 -21 -36 22 0 34 3 40 20 40 12 0 32 -11 46 -25 32 -32 34 -31 34 5 l0 30
-92 0 c-68 -1 -88 -3 -75 -11z"/>
<path d="M843 880 c-72 -30 -73 -172 -2 -198 10 -4 37 -6 59 -4 37 4 40 7 40
33 0 33 -16 39 -25 10 -7 -23 -43 -37 -57 -23 -14 14 -21 114 -9 145 14 35 47
36 63 2 15 -34 28 -32 28 5 0 22 -5 30 -17 30 -10 0 -27 2 -38 5 -11 2 -30 0
-42 -5z"/>
<path d="M960 878 c0 -5 5 -8 10 -8 15 0 13 -177 -2 -183 -7 -3 11 -6 41 -6
47 -1 52 1 37 12 -12 9 -17 23 -14 47 3 31 6 35 33 35 28 0 30 -3 33 -42 2
-33 -1 -42 -15 -46 -10 -3 9 -5 42 -6 45 0 56 2 43 10 -15 8 -18 25 -18 94 0
73 2 85 17 85 9 0 13 3 9 7 -9 10 -96 10 -102 1 -3 -4 2 -8 10 -8 12 0 16 -10
16 -40 0 -39 -1 -40 -35 -40 -34 0 -35 1 -35 40 0 31 4 40 17 40 9 0 13 3 9 7
-9 10 -96 10 -96 1z"/>
<path d="M1200 878 c0 -5 4 -8 9 -8 5 0 11 -36 12 -80 2 -43 9 -84 15 -90 20
-20 69 -28 104 -16 l35 11 3 80 c2 61 7 83 19 93 9 6 15 12 12 13 -42 6 -60 6
-64 -2 -4 -5 1 -9 9 -9 23 0 23 -126 0 -158 -17 -24 -43 -29 -62 -10 -15 15
-17 168 -2 168 6 0 10 3 10 8 0 4 -22 7 -50 7 -27 0 -50 -3 -50 -7z"/>
<path d="M1537 879 c-26 -15 -38 -54 -27 -83 6 -18 21 -28 50 -36 45 -12 59
-32 40 -55 -18 -22 -46 -18 -68 10 -21 27 -32 23 -32 -11 0 -18 7 -23 38 -26
50 -7 80 6 93 39 17 45 0 75 -51 94 -31 12 -45 22 -45 35 0 28 50 32 65 5 15
-29 30 -26 30 4 0 17 -6 25 -17 25 -10 0 -27 2 -38 5 -11 3 -28 0 -38 -6z"/>
<path d="M1715 876 c-67 -29 -75 -153 -11 -185 72 -35 136 5 136 86 0 55 -12
78 -50 98 -35 18 -37 18 -75 1z m60 -96 c0 -75 -2 -85 -19 -88 -28 -6 -36 15
-36 94 0 77 4 86 35 82 18 -3 20 -10 20 -88z"/>
<path d="M1864 878 c-3 -4 2 -8 10 -8 13 0 16 -14 16 -78 0 -93 14 -113 79
-114 67 -1 81 20 81 114 0 45 4 78 10 78 6 0 10 4 10 8 0 5 -13 9 -30 9 -16 0
-30 -4 -30 -9 0 -4 5 -8 10 -8 6 0 10 -33 10 -80 0 -70 -2 -81 -20 -90 -28
-15 -56 -4 -64 23 -3 12 -6 48 -6 79 0 44 4 59 18 67 20 12 20 12 -41 15 -27
1 -51 -2 -53 -6z"/>
<path d="M2112 868 c-40 -44 -23 -91 39 -110 47 -13 59 -32 36 -55 -20 -20
-63 -10 -72 17 -9 30 -25 24 -25 -9 0 -26 4 -29 38 -33 50 -7 80 6 93 38 16
44 -1 77 -52 95 -30 12 -44 22 -44 35 0 30 39 29 63 0 20 -27 32 -25 32 5 0
22 -5 25 -50 34 -29 5 -39 2 -58 -17z"/>
<path d="M2365 880 c-3 -6 1 -10 9 -10 25 0 23 -165 -1 -179 -14 -8 -10 -10
22 -10 22 0 34 3 28 6 -9 3 -13 28 -13 76 l1 72 25 -77 c14 -43 28 -78 33 -78
4 0 18 34 30 75 12 41 24 75 26 75 3 0 5 -31 5 -69 0 -58 -3 -70 -17 -74 -10
-3 9 -5 42 -5 33 0 52 2 43 5 -16 4 -18 17 -18 94 0 77 2 89 17 89 10 0 13 3
8 9 -6 4 -27 6 -47 4 -34 -5 -39 -9 -50 -47 -17 -60 -24 -62 -38 -11 -7 26
-18 48 -24 50 -36 11 -76 13 -81 5z"/>
<path d="M2722 873 c-5 -10 -24 -53 -42 -96 -17 -42 -39 -81 -48 -87 -13 -7
-8 -9 23 -10 27 0 35 3 26 9 -23 15 -5 41 29 41 34 0 52 -26 29 -41 -9 -6 5
-9 41 -9 30 0 50 4 43 8 -7 4 -28 50 -48 102 -20 52 -38 96 -40 98 -2 2 -8 -5
-13 -15z m7 -115 c1 -5 -8 -8 -19 -8 -23 0 -24 4 -8 33 11 21 11 21 19 2 4
-11 8 -23 8 -27z"/>
<path d="M2872 868 c-40 -44 -24 -91 39 -110 47 -13 59 -32 36 -55 -20 -20
-63 -10 -72 17 -9 30 -25 24 -25 -9 0 -26 4 -29 38 -34 48 -6 83 11 95 46 14
43 -4 74 -54 88 -43 13 -59 33 -41 51 16 16 60 1 67 -22 8 -26 25 -16 25 16 0
14 -6 24 -14 24 -7 0 -26 3 -42 6 -22 4 -34 0 -52 -18z"/>
<path d="M3029 869 c-14 -14 -19 -30 -17 -52 3 -27 10 -35 51 -55 39 -18 48
-27 45 -45 -4 -32 -59 -31 -73 1 -14 31 -25 28 -25 -8 0 -27 3 -30 33 -31 69
-3 97 16 97 66 0 36 -20 58 -65 72 -19 6 -30 16 -30 29 0 31 36 30 62 -2 l23
-29 0 31 c0 27 -4 32 -31 38 -45 9 -47 8 -70 -15z"/>
<path d="M3225 797 c-20 -50 -44 -98 -53 -104 -13 -11 -10 -13 24 -13 31 1 35
3 22 11 -27 15 -10 39 27 39 35 0 56 -27 33 -42 -8 -4 9 -8 41 -8 46 0 52 2
39 13 -9 6 -30 52 -48 100 -18 48 -36 90 -40 92 -5 3 -24 -37 -45 -88z m38
-27 c4 -16 0 -20 -19 -20 -21 0 -23 2 -12 25 12 27 23 26 31 -5z"/>
<path d="M3615 799 c-21 -52 -45 -100 -54 -106 -12 -11 -8 -13 25 -13 31 1 35
3 22 11 -27 15 -10 39 27 39 35 0 56 -27 33 -42 -8 -4 9 -8 41 -8 46 0 52 2
39 13 -8 6 -28 47 -43 89 -44 124 -45 125 -90 17z m38 -29 c4 -16 0 -20 -19
-20 -21 0 -23 2 -12 25 12 27 23 26 31 -5z"/>
<path d="M3823 871 c-70 -44 -63 -155 11 -186 32 -13 40 -13 76 1 30 12 40 22
40 39 0 13 6 26 13 28 6 3 -13 5 -43 5 -30 0 -49 -2 -42 -5 17 -7 15 -52 -3
-59 -31 -12 -45 15 -45 85 0 39 5 72 12 79 20 20 56 14 74 -13 22 -33 34 -32
34 5 0 24 -4 30 -22 29 -13 0 -34 3 -48 6 -16 4 -36 -1 -57 -14z"/>
<path d="M4046 795 c-21 -52 -45 -99 -54 -105 -13 -7 -7 -9 23 -9 22 0 34 3
28 6 -7 2 -13 13 -13 24 0 15 7 19 34 19 36 0 58 -26 34 -42 -7 -4 46 -8 118
-8 l130 0 28 29 c20 21 27 39 28 70 1 77 -44 109 -149 106 -39 0 -76 -15 -40
-15 15 0 17 -13 17 -90 l0 -90 -29 0 c-28 0 -31 5 -67 100 -21 55 -41 100 -45
100 -3 0 -23 -43 -43 -95z m282 63 c7 -7 12 -40 12 -80 0 -56 -3 -69 -19 -78
-37 -20 -41 -13 -41 80 0 80 2 90 18 90 10 0 23 -5 30 -12z m-238 -100 c0 -4
-9 -8 -20 -8 -21 0 -24 8 -13 36 6 16 7 16 20 -2 7 -10 13 -21 13 -26z"/>
<path d="M4430 878 c0 -5 5 -8 10 -8 15 0 13 -177 -2 -183 -7 -3 12 -5 42 -5
30 0 49 2 43 5 -16 6 -18 183 -3 183 6 0 10 3 10 8 0 4 -22 7 -50 7 -27 0 -50
-3 -50 -7z"/>
<path d="M4550 878 c0 -4 5 -8 10 -8 6 0 10 -36 10 -89 0 -77 -2 -90 -17 -94
-10 -3 9 -5 42 -5 33 0 52 2 43 5 -26 6 -26 96 -1 91 9 -2 21 -18 26 -38 5
-19 13 -41 19 -47 12 -15 68 -17 68 -3 0 6 -4 10 -9 10 -5 0 -12 13 -16 29 -3
16 -12 35 -20 41 -11 9 -9 15 11 35 20 20 23 29 14 44 -5 11 -20 23 -31 26
-32 10 -149 12 -149 3z m118 -44 c2 -22 -2 -33 -13 -38 -25 -9 -35 2 -35 40 0
31 3 35 23 32 17 -2 23 -11 25 -34z"/>
<path d="M2260 740 c0 -17 7 -20 40 -20 33 0 40 3 40 20 0 17 -7 20 -40 20
-33 0 -40 -3 -40 -20z"/>
<path d="M3397 724 c-12 -12 -8 -42 6 -47 21 -8 39 8 35 29 -3 19 -29 30 -41
18z"/>
</g>
</svg>
